<?xml version="1.0" standalone="no"?><svg xmlns="http://www.w3.org/2000/svg" viewBox="0 0 1440 320"><path fill="#2A2A2A" fill-opacity="1" d="M0,256L10.9,250.7C21.8,245,44,235,65,213.3C87.3,192,109,160,131,170.7C152.7,181,175,235,196,234.7C218.2,235,240,181,262,181.3C283.6,181,305,235,327,266.7C349.1,299,371,309,393,298.7C414.5,288,436,256,458,229.3C480,203,502,181,524,197.3C545.5,213,567,267,589,277.3C610.9,288,633,256,655,250.7C676.4,245,698,267,720,250.7C741.8,235,764,181,785,138.7C807.3,96,829,64,851,85.3C872.7,107,895,181,916,208C938.2,235,960,213,982,218.7C1003.6,224,1025,256,1047,245.3C1069.1,235,1091,181,1113,176C1134.5,171,1156,213,1178,197.3C1200,181,1222,107,1244,69.3C1265.5,32,1287,32,1309,64C1330.9,96,1353,160,1375,154.7C1396.4,149,1418,75,1429,37.3L1440,0L1440,320L1429.1,320C1418.2,320,1396,320,1375,320C1352.7,320,1331,320,1309,320C1287.3,320,1265,320,1244,320C1221.8,320,1200,320,1178,320C1156.4,320,1135,320,1113,320C1090.9,320,1069,320,1047,320C1025.5,320,1004,320,982,320C960,320,938,320,916,320C894.5,320,873,320,851,320C829.1,320,807,320,785,320C763.6,320,742,320,720,320C698.2,320,676,320,655,320C632.7,320,611,320,589,320C567.3,320,545,320,524,320C501.8,320,480,320,458,320C436.4,320,415,320,393,320C370.9,320,349,320,327,320C305.5,320,284,320,262,320C240,320,218,320,196,320C174.5,320,153,320,131,320C109.1,320,87,320,65,320C43.6,320,22,320,11,320L0,320Z"></path></svg>