<?xml version="1.0" encoding="UTF-8"?>
<svg id="Layer_1" data-name="Layer 1" xmlns="http://www.w3.org/2000/svg" xmlns:xlink="http://www.w3.org/1999/xlink" viewBox="0 0 1700.79 212.6">
  <defs>
    <style>
      .cls-1 {
        fill: #050303;
      }

      .cls-2 {
        fill: url(#linear-gradient-2);
      }

      .cls-3 {
        fill: #414242;
      }

      .cls-4 {
        fill: #2a2a2c;
      }

      .cls-5 {
        fill: #171b1a;
      }

      .cls-6 {
        fill: #323233;
      }

      .cls-7 {
        fill: #161918;
      }

      .cls-8 {
        fill: #414141;
      }

      .cls-9 {
        fill: #131713;
      }

      .cls-10 {
        fill: #0f120e;
      }

      .cls-11 {
        fill: #060906;
      }

      .cls-12 {
        fill: #2d2d2e;
      }

      .cls-13 {
        fill: #2e2f30;
      }

      .cls-14 {
        fill: #2c2c2d;
      }

      .cls-15 {
        fill: #030102;
      }

      .cls-16, .cls-17, .cls-18 {
        fill: #f26222;
      }

      .cls-16, .cls-19, .cls-20 {
        fill-rule: evenodd;
      }

      .cls-21, .cls-22 {
        fill: none;
      }

      .cls-23 {
        fill: #231f20;
      }

      .cls-23, .cls-17 {
        font-family: Poppins-Bold, Poppins;
        font-size: 127.9px;
        font-weight: 700;
      }

      .cls-24 {
        fill: #3c3c3c;
      }

      .cls-25 {
        fill: #141816;
      }

      .cls-26 {
        fill: #303132;
      }

      .cls-27 {
        fill: #212424;
      }

      .cls-28 {
        fill: #040202;
      }

      .cls-29 {
        fill: #232626;
      }

      .cls-30 {
        clip-path: url(#clippath-1);
      }

      .cls-31 {
        fill: #4d4d4e;
      }

      .cls-32 {
        fill: #101411;
      }

      .cls-33 {
        fill: #060604;
      }

      .cls-34 {
        fill: #1d2121;
      }

      .cls-35 {
        fill: #222426;
      }

      .cls-36 {
        fill: #3a393a;
      }

      .cls-37 {
        fill: #3b3a3b;
      }

      .cls-38 {
        clip-path: url(#clippath-3);
      }

      .cls-39 {
        fill: #191d1b;
      }

      .cls-40 {
        fill: #0d120e;
      }

      .cls-22 {
        clip-rule: evenodd;
      }

      .cls-41 {
        fill: #3e3e3e;
      }

      .cls-42 {
        fill: #0a0c08;
      }

      .cls-43 {
        fill: #0d0f0b;
      }

      .cls-44 {
        fill: #252627;
      }

      .cls-45 {
        fill: #3f3f3f;
      }

      .cls-46 {
        fill: #383738;
      }

      .cls-47 {
        fill: #333233;
      }

      .cls-48 {
        fill: #1f2323;
      }

      .cls-49 {
        fill: #343334;
      }

      .cls-50 {
        fill: #373637;
      }

      .cls-51 {
        fill: #050805;
      }

      .cls-52 {
        clip-path: url(#clippath-2);
      }

      .cls-53 {
        fill: #363536;
      }

      .cls-54 {
        fill: #1b1f1e;
      }

      .cls-20 {
        fill: #000001;
      }

      .cls-55 {
        fill: url(#linear-gradient);
      }

      .cls-56 {
        clip-path: url(#clippath);
      }

      .cls-57 {
        fill: #191d1d;
      }

      .cls-58 {
        fill: #29292a;
      }

      .cls-59 {
        fill: #282829;
      }
    </style>
    <clipPath id="clippath">
      <rect class="cls-21" width="1700.79" height="212.6"/>
    </clipPath>
    <clipPath id="clippath-1">
      <path class="cls-22" d="M763.34,106.31c0-17.12-13.92-31.04-31.04-31.04s-31.04,13.93-31.04,31.04,13.92,31.04,31.04,31.04,31.04-13.92,31.04-31.04M825.42,106.31c0,51.34-41.78,93.12-93.12,93.12s-93.12-41.78-93.12-93.12,41.78-93.12,93.12-93.12,93.12,41.78,93.12,93.12Z"/>
    </clipPath>
    <clipPath id="clippath-2">
      <path class="cls-22" d="M825.42,106.31c0-17.12,13.92-31.04,31.04-31.04s31.04,13.93,31.04,31.04-13.92,31.04-31.04,31.04-31.04-13.92-31.04-31.04M763.34,106.31c0,51.34,41.78,93.12,93.12,93.12s93.12-41.78,93.12-93.12-41.78-93.12-93.12-93.12-93.12,41.78-93.12,93.12Z"/>
    </clipPath>
    <linearGradient id="linear-gradient" x1="932.75" y1="159.73" x2="780.17" y2="52.9" gradientUnits="userSpaceOnUse">
      <stop offset="0" stop-color="#000"/>
      <stop offset=".6" stop-color="#000"/>
      <stop offset="1" stop-color="#424242"/>
    </linearGradient>
    <clipPath id="clippath-3">
      <path class="cls-22" d="M639.17,106.31h62.08c0-17.11,13.92-31.04,31.04-31.04s31.04,13.92,31.04,31.04c0,51.34,41.78,93.12,93.12,93.12s93.12-41.78,93.12-93.12h-62.08c0,17.11-13.92,31.04-31.04,31.04s-31.04-13.92-31.04-31.04c0-51.34-41.78-93.12-93.12-93.12s-93.12,41.78-93.12,93.12"/>
    </clipPath>
    <linearGradient id="linear-gradient-2" x1="794.38" y1="199.44" x2="794.38" y2="13.19" gradientUnits="userSpaceOnUse">
      <stop offset="0" stop-color="#4d4d4e"/>
      <stop offset=".4" stop-color="#201e1e"/>
      <stop offset="1" stop-color="#201e1e"/>
    </linearGradient>
  </defs>
  <g class="cls-56">
    <polygon class="cls-20" points="642.78 59.33 642.78 13.49 468.4 13.49 468.4 59.33 526.9 59.33 526.9 199.14 584.27 199.14 584.27 59.33 642.78 59.33"/>
    <polygon class="cls-20" points="1198.17 13.47 1140.79 13.47 1140.79 199.16 1287.73 199.16 1287.73 153.43 1198.17 153.43 1198.17 13.47"/>
    <polygon class="cls-20" points="1132.24 14.33 1075.15 14.33 1075.15 78.71 1013.03 78.71 1013.03 14.33 956.18 14.33 956.18 198.3 1013.03 198.3 1013.03 123.88 1075.15 123.88 1075.15 198.3 1132.24 198.3 1132.24 14.33"/>
    <g class="cls-30">
      <rect x="551.72" y="37.72" width="209.13" height="12.52" transform="translate(206.12 523.56) rotate(-50.65)"/>
      <rect x="556.7" y="47.52" width="209.13" height="1.09" transform="translate(204.8 528.92) rotate(-50.65)"/>
      <rect x="557.26" y="47.98" width="209.13" height="1.09" transform="translate(204.75 529.62) rotate(-50.66)"/>
      <rect x="557.83" y="48.44" width="209.13" height="1.09" transform="translate(204.42 530.06) rotate(-50.64)"/>
      <rect x="558.39" y="48.9" width="209.13" height="1.09" transform="translate(204.34 530.73) rotate(-50.65)"/>
      <rect x="558.95" y="49.37" width="209.13" height="1.09" transform="translate(204.11 531.25) rotate(-50.64)"/>
      <rect x="559.51" y="49.83" width="209.13" height="1.09" transform="translate(204.06 531.95) rotate(-50.65)"/>
      <rect x="560.08" y="50.29" width="209.13" height="1.09" transform="translate(203.97 532.62) rotate(-50.66)"/>
      <rect x="560.64" y="50.75" width="209.13" height="1.09" transform="translate(203.68 533.09) rotate(-50.64)"/>
      <rect x="561.2" y="51.21" width="209.13" height="1.09" transform="translate(203.62 533.77) rotate(-50.65)"/>
      <rect x="561.76" y="51.67" width="209.13" height="1.09" transform="translate(203.37 534.28) rotate(-50.64)"/>
      <rect x="562.33" y="52.13" width="209.13" height="1.09" transform="translate(203.42 535.08) rotate(-50.66)"/>
      <rect x="562.89" y="52.6" width="209.13" height="1.09" transform="translate(203.1 535.52) rotate(-50.64)"/>
      <rect x="563.45" y="53.06" width="209.13" height="1.09" transform="translate(202.86 536.04) rotate(-50.63)"/>
      <rect x="564.01" y="53.52" width="209.13" height="1.09" transform="translate(202.88 536.82) rotate(-50.65)"/>
      <rect x="564.58" y="53.98" width="209.13" height="1.09" transform="translate(202.61 537.3) rotate(-50.64)"/>
      <rect x="565.14" y="54.44" width="209.13" height="1.09" transform="translate(202.65 538.09) rotate(-50.66)"/>
      <rect x="565.7" y="54.9" width="209.13" height="1.09" transform="translate(202.4 538.59) rotate(-50.65)"/>
      <rect x="566.26" y="55.36" width="209.13" height="1.09" transform="translate(202.13 539.08) rotate(-50.64)"/>
      <rect x="566.83" y="55.83" width="209.13" height="1.09" transform="translate(202.09 539.8) rotate(-50.65)"/>
      <rect x="567.39" y="56.29" width="209.13" height="1.09" transform="translate(201.91 540.37) rotate(-50.64)"/>
      <rect x="567.95" y="56.75" width="209.13" height="1.09" transform="translate(201.77 540.99) rotate(-50.65)"/>
      <rect x="568.51" y="57.21" width="209.13" height="1.09" transform="translate(201.67 541.64) rotate(-50.65)"/>
      <rect x="569.08" y="57.67" width="209.13" height="1.09" transform="translate(201.39 542.12) rotate(-50.64)"/>
      <rect x="569.64" y="58.13" width="209.13" height="1.09" transform="translate(201.37 542.85) rotate(-50.65)"/>
      <rect x="570.2" y="58.59" width="209.13" height="1.09" transform="translate(201.21 543.44) rotate(-50.65)"/>
      <rect x="570.77" y="59.05" width="209.13" height="1.09" transform="translate(200.95 543.94) rotate(-50.64)"/>
      <rect x="571.33" y="59.52" width="209.13" height="1.09" transform="translate(200.87 544.61) rotate(-50.65)"/>
      <rect x="571.89" y="59.98" width="209.13" height="1.09" transform="translate(200.6 545.1) rotate(-50.63)"/>
      <rect x="572.45" y="60.44" width="209.13" height="1.09" transform="translate(200.57 545.82) rotate(-50.65)"/>
      <rect x="573.02" y="60.9" width="209.13" height="1.09" transform="translate(200.47 546.48) rotate(-50.65)"/>
      <rect x="573.58" y="61.36" width="209.13" height="1.09" transform="translate(200.2 546.96) rotate(-50.64)"/>
      <rect x="574.14" y="61.82" width="209.13" height="1.09" transform="translate(200.15 547.67) rotate(-50.65)"/>
      <rect x="574.7" y="62.28" width="209.13" height="1.09" transform="translate(199.88 548.15) rotate(-50.64)"/>
      <rect x="575.27" y="62.75" width="209.13" height="1.09" transform="translate(199.92 548.95) rotate(-50.66)"/>
      <rect x="575.83" y="63.21" width="209.13" height="1.09" transform="translate(199.68 549.46) rotate(-50.65)"/>
      <rect x="576.39" y="63.67" width="209.13" height="1.09" transform="translate(199.46 550) rotate(-50.64)"/>
      <rect x="576.95" y="64.13" width="209.13" height="1.09" transform="translate(199.4 550.69) rotate(-50.65)"/>
      <rect x="577.52" y="64.59" width="209.13" height="1.09" transform="translate(199.12 551.17) rotate(-50.64)"/>
      <rect x="578.08" y="65.05" width="209.13" height="1.09" transform="translate(199.16 551.97) rotate(-50.66)"/>
      <rect x="578.64" y="65.51" width="209.13" height="1.09" transform="translate(198.94 552.5) rotate(-50.65)"/>
      <rect x="579.2" y="65.98" width="209.13" height="1.09" transform="translate(198.71 553.02) rotate(-50.64)"/>
      <rect x="579.77" y="66.44" width="209.13" height="1.09" transform="translate(198.61 553.68) rotate(-50.65)"/>
      <rect x="580.33" y="66.9" width="209.13" height="1.09" transform="translate(198.42 554.25) rotate(-50.64)"/>
      <rect x="580.89" y="67.36" width="209.13" height="1.09" transform="translate(198.29 554.87) rotate(-50.65)"/>
      <rect x="581.45" y="67.82" width="209.13" height="1.09" transform="translate(198.19 555.52) rotate(-50.65)"/>
      <rect x="582.02" y="68.28" width="209.13" height="1.09" transform="translate(197.95 556.04) rotate(-50.64)"/>
      <rect x="582.58" y="68.74" width="209.13" height="1.09" transform="translate(197.91 556.75) rotate(-50.65)"/>
      <rect x="583.14" y="69.2" width="209.13" height="1.09" transform="translate(197.68 557.28) rotate(-50.65)"/>
      <rect x="583.71" y="69.67" width="209.13" height="1.09" transform="translate(197.57 557.92) rotate(-50.65)"/>
      <rect x="584.27" y="70.13" width="209.13" height="1.09" transform="translate(197.4 558.5) rotate(-50.65)"/>
      <rect x="584.83" y="70.59" width="209.13" height="1.09" transform="translate(197.14 559) rotate(-50.63)"/>
      <rect x="585.39" y="71.05" width="209.13" height="1.09" transform="translate(197.24 559.85) rotate(-50.66)"/>
      <rect x="585.96" y="71.51" width="209.13" height="1.09" transform="translate(196.88 560.25) rotate(-50.64)"/>
      <rect x="586.52" y="71.97" width="209.13" height="1.09" transform="translate(196.82 560.94) rotate(-50.65)"/>
      <rect x="587.08" y="72.43" width="209.13" height="1.09" transform="translate(196.7 561.58) rotate(-50.65)"/>
      <rect x="587.64" y="72.9" width="209.13" height="1.09" transform="translate(196.43 562.06) rotate(-50.64)"/>
      <rect x="588.21" y="73.36" width="209.13" height="1.09" transform="translate(196.43 562.82) rotate(-50.66)"/>
      <rect x="588.77" y="73.82" width="209.13" height="1.09" transform="translate(196.11 563.25) rotate(-50.64)"/>
      <rect x="589.33" y="74.28" width="209.13" height="1.09" transform="translate(196.01 563.9) rotate(-50.64)"/>
      <rect x="589.89" y="74.74" width="209.13" height="1.09" transform="translate(195.94 564.59) rotate(-50.65)"/>
      <rect x="590.46" y="75.2" width="209.13" height="1.09" transform="translate(195.67 565.08) rotate(-50.64)"/>
      <rect x="591.02" y="75.66" width="209.13" height="1.09" transform="translate(195.62 565.78) rotate(-50.65)"/>
      <rect x="591.58" y="76.13" width="209.13" height="1.09" transform="translate(195.39 566.3) rotate(-50.64)"/>
      <rect x="592.14" y="76.59" width="209.13" height="1.09" transform="translate(195.3 566.97) rotate(-50.65)"/>
      <rect x="592.71" y="77.05" width="209.13" height="1.09" transform="translate(195.15 567.58) rotate(-50.65)"/>
      <rect x="593.27" y="77.51" width="209.13" height="1.09" transform="translate(194.98 568.16) rotate(-50.65)"/>
      <rect x="593.83" y="77.97" width="209.13" height="1.09" transform="translate(194.83 568.77) rotate(-50.65)"/>
      <rect x="594.39" y="78.43" width="209.13" height="1.09" transform="translate(194.72 569.41) rotate(-50.65)"/>
      <rect x="594.96" y="78.89" width="209.13" height="1.09" transform="translate(194.45 569.89) rotate(-50.64)"/>
      <rect x="595.52" y="79.36" width="209.13" height="1.09" transform="translate(194.42 570.62) rotate(-50.65)"/>
      <rect x="596.08" y="79.82" width="209.13" height="1.09" transform="translate(194.27 571.22) rotate(-50.65)"/>
      <rect x="596.65" y="80.28" width="209.13" height="1.09" transform="translate(194.12 571.83) rotate(-50.65)"/>
      <rect x="597.21" y="80.74" width="209.13" height="1.09" transform="translate(193.93 572.39) rotate(-50.65)"/>
      <rect x="597.77" y="81.2" width="209.13" height="1.09" transform="translate(193.69 572.91) rotate(-50.64)"/>
      <rect x="598.33" y="81.66" width="209.13" height="1.09" transform="translate(193.73 573.7) rotate(-50.66)"/>
      <rect x="598.9" y="82.12" width="209.13" height="1.09" transform="translate(193.42 574.15) rotate(-50.64)"/>
      <rect x="599.46" y="82.58" width="209.13" height="1.09" transform="translate(193.37 574.86) rotate(-50.65)"/>
      <rect x="600.02" y="83.05" width="209.13" height="1.09" transform="translate(193.21 575.44) rotate(-50.65)"/>
      <rect x="600.58" y="83.51" width="209.13" height="1.09" transform="translate(192.94 575.92) rotate(-50.64)"/>
      <rect x="601.15" y="83.97" width="209.13" height="1.09" transform="translate(192.94 576.69) rotate(-50.66)"/>
      <rect x="601.71" y="84.43" width="209.13" height="1.09" transform="translate(192.62 577.12) rotate(-50.64)"/>
      <rect x="602.27" y="84.89" width="209.13" height="1.09" transform="translate(192.59 577.84) rotate(-50.65)"/>
      <rect x="602.83" y="85.35" width="209.13" height="1.09" transform="translate(192.46 578.47) rotate(-50.65)"/>
      <rect x="603.4" y="85.81" width="209.13" height="1.09" transform="translate(192.29 579.05) rotate(-50.65)"/>
      <rect x="603.96" y="86.28" width="209.13" height="1.09" transform="translate(192.14 579.66) rotate(-50.65)"/>
      <rect x="604.52" y="86.74" width="209.13" height="1.09" transform="translate(191.9 580.17) rotate(-50.64)"/>
      <rect x="605.08" y="87.2" width="209.13" height="1.09" transform="translate(191.87 580.9) rotate(-50.65)"/>
      <rect x="605.65" y="87.66" width="209.13" height="1.09" transform="translate(191.68 581.47) rotate(-50.65)"/>
      <rect x="606.21" y="88.12" width="209.13" height="1.09" transform="translate(191.5 582.03) rotate(-50.64)"/>
      <rect x="606.77" y="88.58" width="209.13" height="1.09" transform="translate(191.38 582.68) rotate(-50.65)"/>
      <rect x="607.34" y="89.04" width="209.13" height="1.09" transform="translate(191.13 583.17) rotate(-50.64)"/>
      <rect x="607.9" y="89.51" width="209.13" height="1.09" transform="translate(191.09 583.9) rotate(-50.65)"/>
      <rect x="608.46" y="89.97" width="209.13" height="1.09" transform="translate(190.97 584.53) rotate(-50.65)"/>
      <rect x="609.02" y="90.43" width="209.13" height="1.09" transform="translate(190.69 585) rotate(-50.64)"/>
      <rect x="609.59" y="90.89" width="209.13" height="1.09" transform="translate(190.6 585.66) rotate(-50.65)"/>
      <rect x="610.15" y="91.35" width="209.13" height="1.09" transform="translate(190.34 586.15) rotate(-50.63)"/>
      <rect x="610.71" y="91.81" width="209.13" height="1.09" transform="translate(190.31 586.88) rotate(-50.65)"/>
      <rect x="611.27" y="92.27" width="209.13" height="1.09" transform="translate(190.28 587.62) rotate(-50.66)"/>
      <rect x="611.84" y="92.73" width="209.13" height="1.09" transform="translate(189.95 588.04) rotate(-50.64)"/>
      <rect x="612.4" y="93.2" width="209.13" height="1.09" transform="translate(189.89 588.74) rotate(-50.65)"/>
      <rect x="612.96" y="93.66" width="209.13" height="1.09" transform="translate(189.62 589.21) rotate(-50.64)"/>
      <rect x="613.52" y="94.12" width="209.13" height="1.09" transform="translate(189.59 589.94) rotate(-50.65)"/>
      <rect x="614.09" y="94.58" width="209.13" height="1.09" transform="translate(189.49 590.6) rotate(-50.66)"/>
      <rect x="614.65" y="95.04" width="209.13" height="1.09" transform="translate(189.16 591.02) rotate(-50.64)"/>
      <rect x="615.21" y="95.5" width="209.13" height="1.09" transform="translate(189.12 591.73) rotate(-50.65)"/>
      <rect x="615.77" y="95.96" width="209.13" height="1.09" transform="translate(188.97 592.34) rotate(-50.65)"/>
      <rect x="616.34" y="96.43" width="209.13" height="1.09" transform="translate(188.8 592.92) rotate(-50.65)"/>
      <rect x="616.9" y="96.89" width="209.13" height="1.09" transform="translate(188.68 593.57) rotate(-50.65)"/>
      <rect x="617.46" y="97.35" width="209.13" height="1.09" transform="translate(188.43 594.06) rotate(-50.64)"/>
      <rect x="618.02" y="97.81" width="209.13" height="1.09" transform="translate(188.4 594.79) rotate(-50.65)"/>
      <rect x="618.59" y="98.27" width="209.13" height="1.09" transform="translate(188.16 595.3) rotate(-50.64)"/>
      <rect x="619.15" y="98.73" width="209.13" height="1.09" transform="translate(188.04 595.94) rotate(-50.65)"/>
      <rect x="619.71" y="99.19" width="209.13" height="1.09" transform="translate(187.93 596.58) rotate(-50.65)"/>
      <rect x="620.28" y="99.66" width="209.13" height="1.09" transform="translate(187.67 597.07) rotate(-50.64)"/>
      <rect x="620.84" y="100.12" width="209.13" height="1.09" transform="translate(187.64 597.81) rotate(-50.65)"/>
      <rect x="621.4" y="100.58" width="209.13" height="1.09" transform="translate(187.53 598.45) rotate(-50.66)"/>
      <rect x="621.96" y="101.04" width="209.13" height="1.09" transform="translate(187.2 598.87) rotate(-50.64)"/>
      <rect x="622.53" y="101.5" width="209.13" height="1.09" transform="translate(187.16 599.58) rotate(-50.65)"/>
      <rect x="623.09" y="101.96" width="209.13" height="1.09" transform="translate(186.88 600.05) rotate(-50.63)"/>
      <rect x="623.65" y="102.42" width="209.13" height="1.09" transform="translate(186.84 600.77) rotate(-50.65)"/>
      <rect x="624.21" y="102.88" width="209.13" height="1.09" transform="translate(186.79 601.5) rotate(-50.66)"/>
      <rect x="624.78" y="103.35" width="209.13" height="1.09" transform="translate(186.43 601.87) rotate(-50.64)"/>
      <rect x="625.34" y="103.81" width="209.13" height="1.09" transform="translate(186.44 602.65) rotate(-50.65)"/>
      <rect x="625.9" y="104.27" width="209.13" height="1.09" transform="translate(186.16 603.11) rotate(-50.64)"/>
      <rect x="626.46" y="104.73" width="209.13" height="1.09" transform="translate(186.12 603.83) rotate(-50.65)"/>
      <rect x="627.03" y="105.19" width="209.13" height="1.09" transform="translate(185.95 604.42) rotate(-50.65)"/>
      <rect x="627.59" y="105.65" width="209.13" height="1.09" transform="translate(185.65 604.86) rotate(-50.63)"/>
      <rect x="628.15" y="106.11" width="209.13" height="1.09" transform="translate(185.68 605.66) rotate(-50.65)"/>
      <rect x="628.71" y="106.58" width="209.13" height="1.09" transform="translate(185.43 606.15) rotate(-50.64)"/>
      <rect x="629.28" y="107.04" width="209.13" height="1.09" transform="translate(185.45 606.94) rotate(-50.66)"/>
      <rect x="629.84" y="107.5" width="209.13" height="1.09" transform="translate(185.21 607.45) rotate(-50.65)"/>
      <rect x="630.4" y="107.96" width="209.13" height="1.09" transform="translate(184.94 607.92) rotate(-50.64)"/>
      <rect x="630.96" y="108.42" width="209.13" height="1.09" transform="translate(184.88 608.62) rotate(-50.65)"/>
      <rect x="631.53" y="108.88" width="209.13" height="1.09" transform="translate(184.64 609.13) rotate(-50.64)"/>
      <rect x="632.09" y="109.34" width="209.13" height="1.09" transform="translate(184.66 609.93) rotate(-50.66)"/>
      <rect x="632.65" y="109.81" width="209.13" height="1.09" transform="translate(184.46 610.48) rotate(-50.65)"/>
      <rect x="633.22" y="110.27" width="209.13" height="1.09" transform="translate(184.18 610.94) rotate(-50.64)"/>
      <rect x="633.78" y="110.73" width="209.13" height="1.09" transform="translate(184.16 611.68) rotate(-50.65)"/>
      <rect x="634.34" y="111.19" width="209.13" height="1.09" transform="translate(183.99 612.27) rotate(-50.65)"/>
      <rect x="634.9" y="111.65" width="209.13" height="1.09" transform="translate(183.87 612.91) rotate(-50.65)"/>
      <rect x="635.47" y="112.11" width="209.13" height="1.09" transform="translate(183.67 613.45) rotate(-50.65)"/>
      <rect x="636.03" y="112.57" width="209.13" height="1.09" transform="translate(183.39 613.92) rotate(-50.63)"/>
      <rect x="636.59" y="113.03" width="209.13" height="1.09" transform="translate(183.37 614.66) rotate(-50.65)"/>
      <rect x="637.15" y="113.5" width="209.13" height="1.09" transform="translate(183.23 615.29) rotate(-50.65)"/>
      <rect x="637.72" y="113.96" width="209.13" height="1.09" transform="translate(183.01 615.81) rotate(-50.64)"/>
      <rect x="638.28" y="114.42" width="209.13" height="1.09" transform="translate(182.97 616.54) rotate(-50.65)"/>
      <rect x="638.84" y="114.88" width="209.13" height="1.09" transform="translate(182.67 616.98) rotate(-50.64)"/>
      <rect x="639.4" y="115.34" width="209.13" height="1.09" transform="translate(182.72 617.8) rotate(-50.66)"/>
      <rect x="639.97" y="115.8" width="209.13" height="1.09" transform="translate(182.46 618.29) rotate(-50.65)"/>
      <rect x="640.53" y="116.26" width="209.13" height="1.09" transform="translate(182.24 618.81) rotate(-50.64)"/>
      <rect x="641.09" y="116.73" width="209.13" height="1.09" transform="translate(182.21 619.56) rotate(-50.65)"/>
      <rect x="641.65" y="117.19" width="209.13" height="1.09" transform="translate(181.9 619.98) rotate(-50.64)"/>
      <rect x="642.22" y="117.65" width="209.13" height="1.09" transform="translate(181.97 620.82) rotate(-50.66)"/>
      <rect class="cls-15" x="642.78" y="118.11" width="209.13" height="1.09" transform="translate(181.74 621.34) rotate(-50.65)"/>
      <rect class="cls-15" x="643.34" y="118.57" width="209.13" height="1.09" transform="translate(181.48 621.83) rotate(-50.64)"/>
      <rect class="cls-15" x="643.91" y="119.03" width="209.13" height="1.09" transform="translate(181.42 622.53) rotate(-50.65)"/>
      <rect class="cls-28" x="644.47" y="119.49" width="209.13" height="1.09" transform="translate(181.13 622.97) rotate(-50.63)"/>
      <rect class="cls-28" x="645.03" y="119.96" width="209.13" height="1.09" transform="translate(181.09 623.7) rotate(-50.65)"/>
      <rect class="cls-1" x="645.59" y="120.42" width="209.13" height="1.09" transform="translate(181.01 624.39) rotate(-50.65)"/>
      <rect class="cls-1" x="646.16" y="120.88" width="209.13" height="1.09" transform="translate(180.73 624.85) rotate(-50.64)"/>
      <rect class="cls-1" x="646.72" y="121.34" width="209.13" height="1.09" transform="translate(180.69 625.58) rotate(-50.65)"/>
      <rect class="cls-1" x="647.28" y="121.8" width="209.13" height="1.09" transform="translate(180.54 626.18) rotate(-50.65)"/>
      <rect class="cls-1" x="647.84" y="122.26" width="209.13" height="1.09" transform="translate(180.35 626.74) rotate(-50.65)"/>
      <rect class="cls-1" x="648.41" y="122.72" width="209.13" height="1.09" transform="translate(180.22 627.36) rotate(-50.65)"/>
      <rect class="cls-1" x="648.97" y="123.18" width="209.13" height="1.09" transform="translate(179.94 627.83) rotate(-50.64)"/>
      <rect class="cls-33" x="649.53" y="123.65" width="209.13" height="1.09" transform="translate(179.93 628.59) rotate(-50.65)"/>
      <rect class="cls-33" x="650.09" y="124.11" width="209.13" height="1.09" transform="translate(179.78 629.2) rotate(-50.65)"/>
      <rect class="cls-33" x="650.66" y="124.57" width="209.13" height="1.09" transform="translate(179.61 629.78) rotate(-50.65)"/>
      <rect class="cls-33" x="651.22" y="125.03" width="209.13" height="1.09" transform="translate(179.46 630.38) rotate(-50.65)"/>
      <rect class="cls-33" x="651.78" y="125.49" width="209.13" height="1.09" transform="translate(179.24 630.91) rotate(-50.64)"/>
      <rect class="cls-33" x="652.34" y="125.95" width="209.13" height="1.09" transform="translate(179.23 631.67) rotate(-50.66)"/>
      <rect class="cls-33" x="652.91" y="126.41" width="209.13" height="1.09" transform="translate(178.88 632.05) rotate(-50.63)"/>
      <rect class="cls-33" x="653.47" y="126.88" width="209.13" height="1.09" transform="translate(178.82 632.76) rotate(-50.65)"/>
      <rect class="cls-33" x="654.03" y="127.34" width="209.13" height="1.09" transform="translate(178.69 633.38) rotate(-50.65)"/>
      <rect class="cls-51" x="654.59" y="127.8" width="209.13" height="1.09" transform="translate(178.48 633.92) rotate(-50.64)"/>
      <rect class="cls-51" x="655.16" y="128.26" width="209.13" height="1.09" transform="translate(178.51 634.74) rotate(-50.66)"/>
      <rect class="cls-11" x="655.72" y="128.72" width="209.13" height="1.09" transform="translate(178.16 635.11) rotate(-50.64)"/>
      <rect class="cls-11" x="656.28" y="129.18" width="209.13" height="1.09" transform="translate(178.14 635.86) rotate(-50.65)"/>
      <rect class="cls-11" x="656.85" y="129.64" width="209.13" height="1.09" transform="translate(177.92 636.38) rotate(-50.65)"/>
      <rect class="cls-42" x="657.41" y="130.11" width="209.13" height="1.09" transform="translate(177.76 636.98) rotate(-50.64)"/>
      <rect class="cls-42" x="657.97" y="130.57" width="209.13" height="1.09" transform="translate(177.65 637.63) rotate(-50.65)"/>
      <rect class="cls-43" x="658.53" y="131.03" width="209.13" height="1.09" transform="translate(177.41 638.13) rotate(-50.64)"/>
      <rect class="cls-43" x="659.1" y="131.49" width="209.13" height="1.09" transform="translate(177.26 638.73) rotate(-50.64)"/>
      <rect class="cls-10" x="659.66" y="131.95" width="209.13" height="1.09" transform="translate(177.19 639.44) rotate(-50.65)"/>
      <rect class="cls-40" x="660.22" y="132.41" width="209.13" height="1.09" transform="translate(177.01 640) rotate(-50.65)"/>
      <rect class="cls-32" x="660.78" y="132.87" width="209.13" height="1.09" transform="translate(176.93 640.69) rotate(-50.65)"/>
      <rect class="cls-32" x="661.35" y="133.34" width="209.13" height="1.09" transform="translate(176.74 641.25) rotate(-50.65)"/>
      <rect class="cls-32" x="661.91" y="133.8" width="209.13" height="1.09" transform="translate(176.5 641.75) rotate(-50.64)"/>
      <rect class="cls-9" x="662.47" y="134.26" width="209.13" height="1.09" transform="translate(176.45 642.46) rotate(-50.65)"/>
      <rect class="cls-9" x="663.03" y="134.72" width="209.13" height="1.09" transform="translate(176.18 642.94) rotate(-50.64)"/>
      <rect class="cls-25" x="663.6" y="135.18" width="209.13" height="1.09" transform="translate(176.18 643.71) rotate(-50.65)"/>
      <rect class="cls-25" x="664.16" y="135.64" width="209.13" height="1.09" transform="translate(176.03 644.32) rotate(-50.65)"/>
      <rect class="cls-7" x="664.72" y="136.1" width="209.13" height="1.09" transform="translate(175.75 644.77) rotate(-50.64)"/>
      <rect class="cls-7" x="665.28" y="136.56" width="209.13" height="1.09" transform="translate(175.74 645.54) rotate(-50.66)"/>
      <rect class="cls-5" x="665.85" y="137.03" width="209.13" height="1.09" transform="translate(175.39 645.91) rotate(-50.63)"/>
      <rect class="cls-5" x="666.41" y="137.49" width="209.13" height="1.09" transform="translate(175.37 646.67) rotate(-50.65)"/>
      <rect class="cls-5" x="666.97" y="137.95" width="209.13" height="1.09" transform="translate(175.27 647.34) rotate(-50.65)"/>
      <rect class="cls-39" x="667.53" y="138.41" width="209.13" height="1.09" transform="translate(175.01 647.81) rotate(-50.64)"/>
      <rect class="cls-57" x="668.1" y="138.87" width="209.13" height="1.09" transform="translate(175.03 648.61) rotate(-50.66)"/>
      <rect class="cls-54" x="668.66" y="139.33" width="209.13" height="1.09" transform="translate(174.68 648.98) rotate(-50.64)"/>
      <rect class="cls-54" x="669.22" y="139.79" width="209.13" height="1.09" transform="translate(174.65 649.73) rotate(-50.65)"/>
      <rect class="cls-34" x="669.79" y="140.26" width="209.13" height="1.09" transform="translate(174.47 650.3) rotate(-50.65)"/>
      <rect class="cls-34" x="670.35" y="140.72" width="209.13" height="1.09" transform="translate(174.32 650.9) rotate(-50.65)"/>
      <rect class="cls-48" x="670.91" y="141.18" width="209.13" height="1.09" transform="translate(174.2 651.54) rotate(-50.65)"/>
      <rect class="cls-48" x="671.47" y="141.64" width="209.13" height="1.09" transform="translate(173.92 652) rotate(-50.64)"/>
      <rect class="cls-48" x="672.04" y="142.1" width="209.13" height="1.09" transform="translate(173.9 652.75) rotate(-50.65)"/>
      <rect class="cls-27" x="672.6" y="142.56" width="209.13" height="1.09" transform="translate(173.74 653.35) rotate(-50.65)"/>
      <rect class="cls-27" x="673.16" y="143.02" width="209.13" height="1.09" transform="translate(173.6 653.96) rotate(-50.65)"/>
      <rect class="cls-29" x="673.72" y="143.49" width="209.13" height="1.09" transform="translate(173.43 654.54) rotate(-50.65)"/>
      <rect class="cls-35" x="674.29" y="143.95" width="209.13" height="1.09" transform="translate(173.13 654.97) rotate(-50.63)"/>
      <rect class="cls-44" x="674.85" y="144.41" width="209.13" height="1.09" transform="translate(173.12 655.75) rotate(-50.65)"/>
      <rect class="cls-44" x="675.41" y="144.87" width="209.13" height="1.09" transform="translate(173.08 656.48) rotate(-50.66)"/>
      <rect class="cls-44" x="675.97" y="145.33" width="209.13" height="1.09" transform="translate(172.73 656.85) rotate(-50.64)"/>
      <rect class="cls-59" x="676.54" y="145.79" width="209.13" height="1.09" transform="translate(172.71 657.6) rotate(-50.65)"/>
      <rect class="cls-59" x="677.1" y="146.25" width="209.13" height="1.09" transform="translate(172.39 658.01) rotate(-50.64)"/>
      <rect class="cls-58" x="677.66" y="146.71" width="209.13" height="1.09" transform="translate(172.41 658.81) rotate(-50.65)"/>
      <rect class="cls-58" x="678.22" y="147.18" width="209.13" height="1.09" transform="translate(172.29 659.46) rotate(-50.66)"/>
      <rect class="cls-4" x="678.79" y="147.64" width="209.13" height="1.09" transform="translate(171.94 659.83) rotate(-50.64)"/>
      <rect class="cls-4" x="679.35" y="148.1" width="209.13" height="1.09" transform="translate(171.92 660.58) rotate(-50.65)"/>
      <rect class="cls-14" x="679.91" y="148.56" width="209.13" height="1.09" transform="translate(171.66 661.05) rotate(-50.64)"/>
      <rect class="cls-14" x="680.48" y="149.02" width="209.13" height="1.09" transform="translate(171.64 661.81) rotate(-50.65)"/>
      <rect class="cls-14" x="681.04" y="149.48" width="209.13" height="1.09" transform="translate(171.5 662.43) rotate(-50.65)"/>
      <rect class="cls-12" x="681.6" y="149.94" width="209.13" height="1.09" transform="translate(171.22 662.88) rotate(-50.64)"/>
      <rect class="cls-12" x="682.16" y="150.41" width="209.13" height="1.09" transform="translate(171.18 663.62) rotate(-50.65)"/>
      <rect class="cls-13" x="682.73" y="150.87" width="209.13" height="1.09" transform="translate(170.97 664.16) rotate(-50.65)"/>
      <rect class="cls-13" x="683.29" y="151.33" width="209.13" height="1.09" transform="translate(170.82 664.76) rotate(-50.65)"/>
      <rect class="cls-26" x="683.85" y="151.79" width="209.13" height="1.09" transform="translate(170.75 665.46) rotate(-50.65)"/>
      <rect class="cls-26" x="684.41" y="152.25" width="209.13" height="1.09" transform="translate(170.49 665.93) rotate(-50.64)"/>
      <rect class="cls-6" x="684.98" y="152.71" width="209.13" height="1.09" transform="translate(170.43 666.64) rotate(-50.65)"/>
      <rect class="cls-47" x="685.54" y="153.17" width="209.13" height="1.09" transform="translate(170.26 667.22) rotate(-50.65)"/>
      <rect class="cls-47" x="686.1" y="153.64" width="209.13" height="1.09" transform="translate(170.09 667.8) rotate(-50.65)"/>
      <rect class="cls-49" x="686.66" y="154.1" width="209.13" height="1.09" transform="translate(169.96 668.43) rotate(-50.65)"/>
      <rect class="cls-49" x="687.23" y="154.56" width="209.13" height="1.09" transform="translate(169.69 668.9) rotate(-50.64)"/>
      <rect class="cls-53" x="687.79" y="155.02" width="209.13" height="1.09" transform="translate(169.64 669.61) rotate(-50.65)"/>
      <rect class="cls-53" x="688.35" y="155.48" width="209.13" height="1.09" transform="translate(169.59 670.35) rotate(-50.66)"/>
      <rect class="cls-50" x="688.91" y="155.94" width="209.13" height="1.09" transform="translate(169.24 670.71) rotate(-50.64)"/>
      <rect class="cls-50" x="689.48" y="156.4" width="209.13" height="1.09" transform="translate(169.22 671.47) rotate(-50.65)"/>
      <rect class="cls-46" x="690.04" y="156.86" width="209.13" height="1.09" transform="translate(168.98 671.96) rotate(-50.64)"/>
      <rect class="cls-46" x="690.6" y="157.33" width="209.13" height="1.09" transform="translate(168.93 672.7) rotate(-50.65)"/>
      <rect class="cls-46" x="691.16" y="157.79" width="209.13" height="1.09" transform="translate(168.82 673.35) rotate(-50.66)"/>
      <rect class="cls-36" x="691.73" y="158.25" width="209.13" height="1.09" transform="translate(168.45 673.69) rotate(-50.63)"/>
      <rect class="cls-36" x="692.29" y="158.71" width="209.13" height="1.09" transform="translate(168.47 674.49) rotate(-50.65)"/>
      <rect class="cls-37" x="692.85" y="159.17" width="209.13" height="1.09" transform="translate(168.2 674.96) rotate(-50.64)"/>
      <rect class="cls-37" x="693.42" y="159.63" width="209.13" height="1.09" transform="translate(168.27 675.83) rotate(-50.66)"/>
      <rect class="cls-24" x="693.98" y="160.09" width="209.13" height="1.09" transform="translate(168.01 676.3) rotate(-50.65)"/>
      <rect class="cls-24" x="694.54" y="160.56" width="209.13" height="1.09" transform="translate(167.73 676.75) rotate(-50.64)"/>
      <rect class="cls-24" x="695.1" y="161.02" width="209.13" height="1.09" transform="translate(167.66 677.44) rotate(-50.65)"/>
      <rect class="cls-41" x="695.67" y="161.48" width="209.13" height="1.09" transform="translate(167.41 677.93) rotate(-50.63)"/>
      <rect class="cls-41" x="696.23" y="161.94" width="209.13" height="1.09" transform="translate(167.48 678.81) rotate(-50.66)"/>
      <rect class="cls-45" x="696.79" y="162.4" width="209.13" height="1.09" transform="translate(167.28 679.35) rotate(-50.65)"/>
      <rect class="cls-45" x="697.35" y="162.86" width="209.13" height="1.09" transform="translate(166.98 679.77) rotate(-50.64)"/>
      <rect class="cls-8" x="697.92" y="163.32" width="209.13" height="1.09" transform="translate(166.93 680.5) rotate(-50.65)"/>
      <rect class="cls-8" x="698.48" y="163.79" width="209.13" height="1.09" transform="translate(166.7 681) rotate(-50.64)"/>
      <rect class="cls-3" x="699.04" y="164.25" width="209.13" height="1.09" transform="translate(166.65 681.73) rotate(-50.65)"/>
      <rect class="cls-31" x="703.88" y="162.68" width="209.13" height="12.16" transform="translate(165.31 686.88) rotate(-50.65)"/>
    </g>
    <g class="cls-52">
      <rect class="cls-55" x="763.34" y="13.19" width="186.24" height="186.24"/>
    </g>
    <g class="cls-38">
      <rect class="cls-2" x="639.17" y="13.19" width="310.41" height="186.24"/>
    </g>
    <path class="cls-19" d="M160.68,56.8h11.61c32.5,0,45.13,10.32,45.13,49,0,35.07-15.47,50.03-43.84,50.03h-12.89v-5.07h-60.86v48.4h79.95c59.57,0,98.52-26.82,98.52-96.71,0-61.12-37.14-88.98-96.97-88.98h-81.5v48.4h60.86v-5.07Z"/>
    <path d="M462.34,97.52h-78.95v38.13h25.42c-2.93,12.22-17.84,20.29-29.57,20.29-29.09,0-36.91-22.73-36.91-47.66,0-2.1.05-4.15.15-6.15l-.66.46-38.66-55.22c-11.98,16-18.51,36.94-18.51,61.15,0,61.35,40.33,90.43,85.3,90.43,27.62,0,43.51-10.27,53.04-21.51l.03,21.51h39.32v-101.43Z"/>
    <path class="cls-18" d="M347.84,76.09c5.32-12.24,14.56-19.39,27.98-19.39,14.91,0,25.42,7.82,29.57,22.24h54.75c-7.09-43.26-41.06-65.26-83.35-65.26-23.98,0-44.11,6.85-59.37,18.98l30.41,43.43Z"/>
    <polygon class="cls-16" points="99.82 106.31 99.82 71.25 130.19 88.78 160.56 106.32 130.19 123.85 99.82 141.38 99.82 106.31"/>
    <text class="cls-17" transform="translate(1302.29 198.26)"><tspan x="0" y="0">360</tspan></text>
    <text class="cls-23" transform="translate(1544.54 198.26)"><tspan x="0" y="0">°</tspan></text>
  </g>
</svg>